<mxfile host="65bd71144e">
    <diagram id="XGiyi-akHZps16cx1tDD" name="Page-1">
        <mxGraphModel dx="1189" dy="2441" grid="1" gridSize="10" guides="1" tooltips="1" connect="1" arrows="1" fold="1" page="1" pageScale="1" pageWidth="850" pageHeight="1100" math="0" shadow="0">
            <root>
                <mxCell id="0"/>
                <mxCell id="1" parent="0"/>
                <mxCell id="35" value="&quot;Order&quot;&lt;br&gt;Android Tablet or Android Phone" style="rounded=1;whiteSpace=wrap;html=1;verticalAlign=top;fontSize=20;" parent="1" vertex="1">
                    <mxGeometry x="890" y="-35" width="460" height="600" as="geometry"/>
                </mxCell>
                <mxCell id="20" value="&quot;Manage&quot;&lt;br&gt;Desktop or Laptop" style="rounded=1;whiteSpace=wrap;html=1;verticalAlign=top;fontSize=20;" parent="1" vertex="1">
                    <mxGeometry x="110" y="-120" width="460" height="770" as="geometry"/>
                </mxCell>
                <mxCell id="2" value="" style="rounded=0;whiteSpace=wrap;html=1;" parent="1" vertex="1">
                    <mxGeometry x="150" y="440" width="190" height="160" as="geometry"/>
                </mxCell>
                <mxCell id="3" value="" style="rounded=0;whiteSpace=wrap;html=1;" parent="1" vertex="1">
                    <mxGeometry x="340" y="440" width="190" height="160" as="geometry"/>
                </mxCell>
                <mxCell id="4" value="" style="rounded=0;whiteSpace=wrap;html=1;" parent="1" vertex="1">
                    <mxGeometry x="150" y="280" width="380" height="160" as="geometry"/>
                </mxCell>
                <mxCell id="5" value="" style="rounded=0;whiteSpace=wrap;html=1;" parent="1" vertex="1">
                    <mxGeometry x="150" y="120" width="190" height="160" as="geometry"/>
                </mxCell>
                <mxCell id="6" value="" style="rounded=0;whiteSpace=wrap;html=1;" parent="1" vertex="1">
                    <mxGeometry x="340" y="120" width="190" height="160" as="geometry"/>
                </mxCell>
                <mxCell id="7" value="" style="rounded=0;whiteSpace=wrap;html=1;" parent="1" vertex="1">
                    <mxGeometry x="150" y="-40" width="380" height="160" as="geometry"/>
                </mxCell>
                <mxCell id="8" value="&lt;font style=&quot;font-size: 15px;&quot;&gt;Tailwind CSS&lt;/font&gt;" style="text;html=1;strokeColor=none;fillColor=none;align=center;verticalAlign=middle;whiteSpace=wrap;rounded=0;" parent="1" vertex="1">
                    <mxGeometry x="290" y="-30" width="100" height="30" as="geometry"/>
                </mxCell>
                <mxCell id="9" value="&lt;font style=&quot;font-size: 15px;&quot;&gt;Node.js&lt;/font&gt;" style="text;html=1;strokeColor=none;fillColor=none;align=center;verticalAlign=middle;whiteSpace=wrap;rounded=0;" parent="1" vertex="1">
                    <mxGeometry x="195" y="120" width="100" height="30" as="geometry"/>
                </mxCell>
                <mxCell id="10" value="&lt;font style=&quot;font-size: 15px;&quot;&gt;MySQL&lt;/font&gt;" style="text;html=1;strokeColor=none;fillColor=none;align=center;verticalAlign=middle;whiteSpace=wrap;rounded=0;" parent="1" vertex="1">
                    <mxGeometry x="387.5" y="120" width="100" height="30" as="geometry"/>
                </mxCell>
                <mxCell id="11" value="&lt;font style=&quot;font-size: 15px;&quot;&gt;Electron&lt;/font&gt;" style="text;html=1;strokeColor=none;fillColor=none;align=center;verticalAlign=middle;whiteSpace=wrap;rounded=0;" parent="1" vertex="1">
                    <mxGeometry x="290" y="282.5" width="100" height="30" as="geometry"/>
                </mxCell>
                <mxCell id="12" value="&lt;font style=&quot;font-size: 15px;&quot;&gt;Linux&lt;/font&gt;" style="text;html=1;strokeColor=none;fillColor=none;align=center;verticalAlign=middle;whiteSpace=wrap;rounded=0;" parent="1" vertex="1">
                    <mxGeometry x="195" y="445.63" width="100" height="30" as="geometry"/>
                </mxCell>
                <mxCell id="13" value="" style="shape=image;verticalLabelPosition=bottom;labelBackgroundColor=default;verticalAlign=top;aspect=fixed;imageAspect=0;image=data:image/svg+xml,PHN2ZyB4bWxuczp4bGluaz0iaHR0cDovL3d3dy53My5vcmcvMTk5OS94bGluayIgeG1sbnM9Imh0dHA6Ly93d3cudzMub3JnLzIwMDAvc3ZnIiBwcmVzZXJ2ZUFzcGVjdFJhdGlvPSJ4TWlkWU1pZCIgdmVyc2lvbj0iMS4xIiB2aWV3Qm94PSIwIDYuMjE3MjQ4OTM3OTAwODc3ZS0xNSAyNTYgMjU2Ljc5MTIyOTI0ODA0NjkiIGhlaWdodD0iNzk5LjM1MDEyOTk1NTAwOTgiIHdpZHRoPSI3OTYuODg3MTU5NTMzMDczOSI+JiN4YTsgICAgPGc+JiN4YTsgICAgICAgIDxwYXRoIGZpbGw9IiMwMEFERUYiIGQ9Ik0wLDM2LjM1NzM4MTggTDEwNC42MTkwODQsMjIuMTA5MzQ1NCBMMTA0LjY2NDgxNywxMjMuMDIyOTIgTDAuMDk1NTY5MzE1MSwxMjMuNjE4NDExIEwwLDM2LjM1NzM4MTggWiBNMTA0LjU2OTI0OCwxMzQuNjUwMTI5IEwxMDQuNjUwNDUyLDIzNS42NTE2NTEgTDAuMDgxMjA0NjAyMSwyMjEuMjc0OTE5IEwwLjA3NTM0MTQ1MzksMTMzLjk3MjY0MiBMMTA0LjU2OTI0OCwxMzQuNjUwMTI5IFogTTExNy4yNTE1MywyMC4yNDU0NTA2IEwyNTUuOTY3NzUzLDYuMjE3MjQ4OTRlLTE1IEwyNTUuOTY3NzUzLDEyMS43Mzk0NzcgTDExNy4yNTE1MywxMjIuODQwNzIzIEwxMTcuMjUxNTMsMjAuMjQ1NDUwNiBaIE0yNTYsMTM1LjU5OTk1OSBMMjU1Ljk2NzQ2LDI1Ni43OTEyMzIgTDExNy4yNTEyMzcsMjM3LjIxMzAwNyBMMTE3LjA1Njg3NCwxMzUuMzczMDU1IEwyNTYsMTM1LjU5OTk1OSBaIj4mI3hhOyYjeGE7PC9wYXRoPiYjeGE7ICAgIDwvZz4mI3hhOzwvc3ZnPg==;" parent="1" vertex="1">
                    <mxGeometry x="400.71000000000004" y="483.13" width="73.57" height="73.75" as="geometry"/>
                </mxCell>
                <mxCell id="14" value="&lt;font style=&quot;font-size: 15px;&quot;&gt;Windows 10&lt;/font&gt;" style="text;html=1;strokeColor=none;fillColor=none;align=center;verticalAlign=middle;whiteSpace=wrap;rounded=0;" parent="1" vertex="1">
                    <mxGeometry x="385" y="445.63" width="100" height="30" as="geometry"/>
                </mxCell>
                <mxCell id="15" value="" style="shape=image;verticalLabelPosition=bottom;labelBackgroundColor=default;verticalAlign=top;aspect=fixed;imageAspect=0;image=data:image/svg+xml,PHN2ZyB4bWxucz0iaHR0cDovL3d3dy53My5vcmcvMjAwMC9zdmciIGZpbGw9Im5vbmUiIHZpZXdCb3g9IjAgMCAxNiAxNiIgaGVpZ2h0PSI4MDBweCIgd2lkdGg9IjgwMHB4Ij48cGF0aCBkPSJNMTMuMzM4IDEyLjAzM2MtLjEtLjExMi0uMTQ2LS4zMTktLjE5Ny0uNTQtLjA1LS4yMi0uMTA3LS40NTctLjI4OC0uNjF2LS4wMDFhLjc1Ni43NTYgMCAwMC0uMjIzLS4xMzRjLjI1Mi0uNzQ1LjE1My0xLjQ4Ny0uMS0yLjE1Ny0uMzEyLS44MjMtLjg1NS0xLjU0LTEuMjctMi4wMy0uNDY0LS41ODYtLjkxOC0xLjE0Mi0uOTEtMS45NjMuMDE0LTEuMjU0LjEzOC0zLjU3OS0yLjA2OC0zLjU4Mi0uMDkgMC0uMTgzLjAwNC0uMjguMDEyLTIuNDY2LjE5OC0xLjgxMiAyLjgwMy0xLjg0OSAzLjY3NS0uMDQ1LjYzOC0uMTc0IDEuMTQtLjYxMyAxLjc2NC0uNTE1LjYxMy0xLjI0IDEuNjA0LTEuNTg0IDIuNjM3LS4xNjIuNDg3LS4yNC45ODQtLjE2OCAxLjQ1NC0uMDIzLjAyLS4wNDQuMDQxLS4wNjQuMDYzLS4xNTEuMTYxLS4yNjMuMzU3LS4zODguNDg5LS4xMTYuMTE2LS4yODIuMTYtLjQ2NC4yMjUtLjE4My4wNjYtLjM4My4xNjItLjUwNC4zOTV2LjAwMWEuNzAyLjcwMiAwIDAwLS4wNzcuMzM5YzAgLjEwOC4wMTYuMjE3LjAzMi4zMjIuMDM0LjIyLjA2OC40MjcuMDIzLjU2Ny0uMTQ0LjM5NS0uMTYzLjY2Ny0uMDYxLjg2NS4xMDIuMTk5LjMxLjI4Ni41NDcuMzM1LjQ3My4xIDEuMTE0LjA3NSAxLjYxOS4zNDJsLjA0My0uMDgyLS4wNDMuMDgyYy41NC4yODMgMS4wODkuMzgzIDEuNTI2LjI4NGEuOTkuOTkgMCAwMC43MDYtLjU1MmMuMzQyLS4wMDIuNzE3LS4xNDYgMS4zMTgtLjE4LjQwOC0uMDMyLjkxOC4xNDUgMS41MDMuMTEzYS44MDYuODA2IDAgMDAuMDY4LjE4M2wuMDAxLjAwMWMuMjI3LjQ1NS42NS42NjIgMS4xLjYyNy40NS0uMDM2LjkyOC0uMzAxIDEuMzE1LS43NjJsLS4wNy0uMDYuMDcuMDZjLjM3LS40NDguOTgyLS42MzMgMS4zODgtLjg3OC4yMDMtLjEyMy4zNjgtLjI3Ni4zOC0uNDk5LjAxMy0uMjIyLS4xMTgtLjQ3MS0uNDE4LS44MDV6IiBmaWxsPSIjMjAyMDIwIi8+PHBhdGggZD0iTTEzLjU3MSAxMi44MjhjLS4wMDcuMTM3LS4xMDcuMjQtLjI5LjM1LS4zNjguMjIyLTEuMDE5LjQxNC0xLjQzNC45MTgtLjM2Mi40My0uODAyLjY2NS0xLjE5LjY5Ni0uMzg3LjAzLS43MjEtLjEzLS45MTktLjUyNnYtLjAwMmMtLjEyMy0uMjMzLS4wNzItLjYuMDMxLS45ODdzLjI1MS0uNzg1LjI3MS0xLjEwOHYtLjAwMWMuMDItLjQxNS4wNDQtLjc3Ni4xMTQtMS4wNTUuMDctLjI4LjE3OS0uNDY4LjM3My0uNTc1YS44NzYuODc2IDAgMDEuMDI3LS4wMTRjLjAyMi4zNTkuMi43MjUuNTE0LjgwNC4zNDMuMDkuODM4LS4yMDQgMS4wNDctLjQ0NWwuMTIyLS4wMDRjLjE4NC0uMDA1LjMzNy4wMDYuNDk1LjE0M3YuMDAxYy4xMjEuMTAyLjE3OS4yOTYuMjI5LjUxMi4wNS4yMTcuMDkuNDUzLjIzOS42MjEuMjg3LjMyLjM4LjUzNC4zNzEuNjcyek02LjU5MiAxMy44NDN2LjAwM2MtLjAzNC40MzUtLjI4LjY3Mi0uNjU2Ljc1OC0uMzc3LjA4Ni0uODg4IDAtMS4zOTgtLjI2Ni0uNTY1LS4zLTEuMjM3LS4yNy0xLjY2Ny0uMzYtLjIxNi0uMDQ1LS4zNTctLjExMy0uNDIxLS4yMzgtLjA2NC0uMTI2LS4wNjYtLjM0NS4wNzEtLjcydi0uMDAxbC4wMDEtLjAwMmMuMDY4LS4yMDkuMDE4LS40MzgtLjAxNS0uNjUzLS4wMzMtLjIxNC0uMDQ5LS40MS4wMjQtLjU0NmwuMDAxLS4wMDFjLjA5NC0uMTgxLjIzMi0uMjQ2LjQwMy0uMzA3LjE3LS4wNjIuMzczLS4xMS41MzMtLjI3bC4wMDEtLjAwMWguMDAxYy4xNDgtLjE1Ny4yNi0uMzUzLjM5LS40OTIuMTEtLjExNy4yMi0uMTk1LjM4NS0uMTk2aC4wMDVhLjYxLjYxIDAgMDEuMDkzLjAwOGMuMjIuMDMzLjQxMS4xODcuNTk2LjQzN2wuNTMzLjk3MXYuMDAxYy4xNDIuMjk2LjQ0MS42MjIuNjk1Ljk1NC4yNTQuMzMzLjQ1LjY2Ni40MjUuOTIxeiIgZmlsbD0iI0Y4QkYxMSIvPjxwYXRoIGQ9Ik05LjI1IDQuNzg4Yy0uMDQzLS4wODQtLjEzLS4xNjQtLjI4LS4yMjUtLjMxLS4xMzMtLjQ0NC0uMTQyLS42MTctLjI1NC0uMjgtLjE4MS0uNTEzLS4yNDQtLjcwNi0uMjQ0YS44MzQuODM0IDAgMDAtLjI3Mi4wNDdjLS4yMzYuMDgtLjM5Mi4yNS0uNDkuMzQyLS4wMi4wMTktLjA0NC4wMzUtLjEwNC4wOC0uMDYuMDQzLS4xNS4xMS0uMjguMjA4LS4xMTcuMDg2LS4xNTQuMi0uMTE0LjMzMi4wNC4xMzIuMTY3LjI4NS40LjQxN2guMDAxYy4xNDUuMDg1LjI0NC4yLjM1OC4yOTFhLjgwMS44MDEgMCAwMC4xODkuMTE3Yy4wNzIuMDMxLjE1Ni4wNTIuMjYuMDU4LjI0OC4wMTUuNDMtLjA2LjU5LS4xNTEuMTYtLjA5Mi4yOTYtLjIwNC40NTItLjI1NWguMDAxYy4zMi0uMS41NDgtLjMwMS42Mi0uNDkzYS4zMjQuMzI0IDAgMDAtLjAwOC0uMjd6IiBmaWxsPSIjRDZBMzEyIi8+PHBhdGggZD0iTTguNDM4IDUuMjZjLS4yNTUuMTMzLS41NTIuMjk0LS44NjkuMjk0LS4zMTYgMC0uNTY2LS4xNDYtLjc0NS0uMjg5LS4wOS0uMDctLjE2My0uMTQyLS4yMTgtLjE5My0uMDk2LS4wNzUtLjA4NC0uMTgxLS4wNDUtLjE3OC4wNjYuMDA4LjA3Ni4wOTUuMTE3LjEzNC4wNTYuMDUyLjEyNi4xMi4yMTEuMTg3LjE3LjEzNS4zOTcuMjY2LjY4LjI2Ni4yODQgMCAuNjE0LS4xNjYuODE2LS4yOC4xMTUtLjA2NC4yNi0uMTc5LjM3OS0uMjY2LjA5LS4wNjcuMDg3LS4xNDcuMTYyLS4xMzguMDc1LjAwOS4wMi4wODktLjA4NS4xOC0uMTA1LjA5Mi0uMjcuMjE0LS40MDMuMjgzeiIgZmlsbD0iIzIwMjAyMCIvPjxwYXRoIGQ9Ik0xMi4zMzcgMTAuNjk0YTEuNzI0IDEuNzI0IDAgMDAtLjEwNCAwaC0uMDFjLjA4OC0uMjc3LS4xMDYtLjQ4LS42MjEtLjcxMy0uNTM0LS4yMzUtLjk2LS4yMTItMS4wMzIuMjY1LS4wMDUuMDI1LS4wMDkuMDUtLjAxMS4wNzZhLjgwMS44MDEgMCAwMC0uMTIuMDU0Yy0uMjUyLjEzNy0uMzg5LjM4Ni0uNDY1LjY5Mi0uMDc2LjMwNS0uMDk4LjY3NC0uMTE5IDEuMDktLjAxMy4yMDgtLjA5OS40OS0uMTg2Ljc5LS44NzUuNjI0LTIuMDkuODk0LTMuMTIyLjE5LS4wNy0uMTEtLjE1LS4yMi0uMjMzLS4zMjhhMTMuODUgMTMuODUgMCAwMC0uMTYtLjIwNS42NS42NSAwIDAwLjI2OC0uMDUuMzQuMzQgMCAwMC4xODYtLjE5MmMuMDYzLS4xNyAwLS40MDgtLjIwMi0uNjgtLjIwMS0uMjczLS41NDItLjU4LTEuMDQzLS44ODgtLjM2OC0uMjMtLjU3NC0uNTEtLjY3LS44MTQtLjA5Ny0uMzA1LS4wODQtLjYzNS0uMDEtLjk2LjE0My0uNjI1LjUxLTEuMjMzLjc0My0xLjYxNC4wNjMtLjA0Ni4wMjMuMDg2LS4yMzYuNTY3LS4yMzIuNDQtLjY2NyAxLjQ1NS0uMDcyIDIuMjQ4LjAxNi0uNTY0LjE1LTEuMTQuMzc3LTEuNjc3LjMyOS0uNzQ3IDEuMDE4LTIuMDQxIDEuMDcyLTMuMDczLjAyOS4wMi4xMjUuMDg2LjE2OS4xMS4xMjYuMDc1LjIyMS4xODQuMzQ0LjI4M2EuODUuODUgMCAwMC41NzUuMmMuMjQgMCAuNDI3LS4wNzkuNTgyLS4xNjguMTctLjA5Ni4zMDQtLjIwNC40MzMtLjI0NS4yNy0uMDg1LjQ4Ni0uMjM1LjYwOC0uNDEuMjEuODMuNyAyLjAyNyAxLjAxNCAyLjYxMS4xNjcuMzEuNS45NjkuNjQzIDEuNzYyLjA5MS0uMDAyLjE5MS4wMS4yOTkuMDM4LjM3NS0uOTczLS4zMTktMi4wMjItLjYzNi0yLjMxNC0uMTI4LS4xMjQtLjEzNS0uMTgtLjA3LS4xNzcuMzQzLjMwNC43OTUuOTE3Ljk2IDEuNjA4LjA3NS4zMTUuMDkuNjQ2LjAxLjk3My4wNC4wMTcuMDguMDM0LjEyLjA1NC42MDMuMjkzLjgyNi41NDguNzE5Ljg5N3oiIGZpbGw9IiNmZmZmZmYiLz48cGF0aCBkPSJNOC4wNCA4LjA2MmMtLjU1Ni4wMDItMS4wOTkuMjUxLTEuNTU4LjcxNi0uNDYuNDY0LS44MTQgMS4xMjItMS4wMTggMS44ODhsLjA2MS4wMzh2LjAwNGMuNDcuMjk4LjgwNS41OTggMS4wMTIuODc4LjIxOS4yOTYuMzE2LjU4NC4yMjMuODM0YS41MTMuNTEzIDAgMDEtLjI3LjI4M2wtLjA0MS4wMTVjLjA3NC4wOTcuMTQ2LjE5Ny4yMTMuMy45NDQuNjI4IDIuMDQyLjM5NiAyLjg2Ny0uMTcyLjA4LS4yNzguMTUzLS41MzYuMTYzLS42OTguMDIxLS40MTUuMDQyLS43OTIuMTI0LTEuMTIuMDgyLS4zMy4yNDItLjYzLjU0NC0uNzk1LjAxNy0uMDEuMDM0LS4wMTUuMDUxLS4wMjNhLjc1Ni43NTYgMCAwMS4wMjItLjA5NGMtLjI0Mi0uNjIyLS41OTEtMS4xNC0xLjAxLTEuNS0uNDItLjM2LS44OTctLjU1MS0xLjM4Mi0uNTU0em0yLjM3IDIuMTU1bC0uMDAyLjAwNXYtLjAwMmwuMDAxLS4wMDR6IiBmaWxsPSIjRTZFNkU2Ii8+PHBhdGggZD0iTTkuMjc4IDMuODMzYTEuMDUgMS4wNSAwIDAxLS4yMTUuNjU2IDQuMTE5IDQuMTE5IDAgMDAtLjIxOC0uMDlsLS4xMjctLjA0NWMuMDI5LS4wMzUuMDg1LS4wNzUuMTA3LS4xMjdhLjY2OS42NjkgMCAwMC4wNS0uMjQzbC4wMDEtLjAxYS42NzMuNjczIDAgMDAtLjAzNS0uMjM2LjQzNC40MzQgMCAwMC0uMTA4LS4xODQuMjIzLjIyMyAwIDAwLS4xNTYtLjA3SDguNTdhLjIyOC4yMjggMCAwMC0uMTUxLjA2LjQzNC40MzQgMCAwMC0uMTIyLjE3NS42NzYuNjc2IDAgMDAtLjA1LjI0M3YuMDFhLjcxOC43MTggMCAwMC4wMDkuMTQgMS43NzMgMS43NzMgMCAwMC0uMzU0LS4xMiAxLjE5NiAxLjE5NiAwIDAxLS4wMS0uMTMzdi0uMDEzYTEuMDM1IDEuMDM1IDAgMDEuMDg4LS40NDcuNzkzLjc5MyAwIDAxLjI1LS4zMjguNTU0LjU1NCAwIDAxLjM0Ni0uMTIzaC4wMDZjLjEyNSAwIC4yMzIuMDM2LjM0Mi4xMTZhLjc4Ljc4IDAgMDEuMjU3LjMyNGMuMDYzLjEzOC4wOTQuMjczLjA5Ny40MzNsLjAwMS4wMTJ6TTcuMzg4IDMuOTk3YTEuMDUgMS4wNSAwIDAwLS4yNzcuMTI1LjYyMy42MjMgMCAwMC4wMDItLjE1di0uMDA4YS42NTEuNjUxIDAgMDAtLjA0OC0uMTkyLjM3LjM3IDAgMDAtLjA5Ni0uMTQxLjE1OC4xNTggMCAwMC0uMTE5LS4wNDVjLS4wNDIuMDA0LS4wNzcuMDI0LS4xMS4wNjVhLjM3Mi4zNzIgMCAwMC0uMDcuMTU2LjYyNi42MjYgMCAwMC0uMDEzLjIwNXYuMDA4YS42MzQuNjM0IDAgMDAuMDQ4LjE5My4zNjcuMzY3IDAgMDAuMTE2LjE1NmwtLjEwMi4wOC0uMDc4LjA1NmEuNzA2LjcwNiAwIDAxLS4xNi0uMjRjLS4wNTMtLjEyLS4wODItLjI0LS4wOS0uMzgxdi0uMDAxYTEuMDcxIDEuMDcxIDAgMDEuMDQ1LS4zOS42NjguNjY4IDAgMDEuMTY3LS4yOTIuMzU5LjM1OSAwIDAxLjI2NC0uMTE4Yy4wODQgMCAuMTU4LjAyOC4yMzUuMDlhLjY4LjY4IDAgMDEuMTk5LjI3MWMuMDUzLjEyLjA4LjI0LjA4OS4zODJ2LjAwMWMuMDAzLjA2LjAwMy4xMTUtLjAwMi4xN3oiIGZpbGw9IiNmZmZmZmYiLz48cGF0aCBkPSJNNy44MDYgNC4zMzVjLjAxLjAzNC4wNjUuMDI5LjA5Ny4wNDUuMDI3LjAxNC4wNS4wNDUuMDguMDQ2LjAzLjAwMS4wNzYtLjAxLjA4LS4wNC4wMDUtLjAzOC0uMDUyLS4wNjMtLjA4OC0uMDc3LS4wNDctLjAxOS0uMTA3LS4wMjgtLjE1MS0uMDAzLS4wMS4wMDUtLjAyMS4wMTgtLjAxOC4wM3pNNy40ODQgNC4zMzVjLS4wMS4wMzQtLjA2NS4wMjktLjA5Ni4wNDUtLjAyOC4wMTQtLjA1LjA0NS0uMDgxLjA0Ni0uMDMuMDAxLS4wNzYtLjAxLS4wOC0uMDQtLjAwNS0uMDM4LjA1Mi0uMDYzLjA4OC0uMDc3LjA0Ny0uMDE5LjEwOC0uMDI4LjE1Mi0uMDAzLjAxLjAwNS4wMi4wMTguMDE3LjAzeiIgZmlsbD0iIzIwMjAyMCIvPjwvc3ZnPg==;" parent="1" vertex="1">
                    <mxGeometry x="206.56" y="481.57" width="76.87" height="76.87" as="geometry"/>
                </mxCell>
                <mxCell id="16" value="" style="shape=image;verticalLabelPosition=bottom;labelBackgroundColor=default;verticalAlign=top;aspect=fixed;imageAspect=0;image=data:image/svg+xml,PHN2ZyB4bWxucz0iaHR0cDovL3d3dy53My5vcmcvMjAwMC9zdmciIGZpbGw9IiM0Nzg0OGYiIHZpZXdCb3g9IjAgMCAxNjEwIDE2MTAiIGhlaWdodD0iODAwcHgiIHdpZHRoPSI4MDBweCI+PHBhdGggZD0iTTYwMyAzODJjLTE5NS0zNi0zNDkgMi00MTEgMTA4LTQ2IDc5LTMzIDE4NSAzMiAyOTcgNSAxMCAxOCAxMyAyNyA3IDEwLTUgMTMtMTggNy0yNy01OC0xMDEtNjktMTkyLTMyLTI1NyA1MS04OCAxODktMTIyIDM2OS04OSAxMSAyIDIxLTUgMjMtMTZzLTQtMjEtMTUtMjN6TTMyNiA5MjRhMTIzMCAxMjMwIDAgMDAyOTggMjM1YzI4MyAxNjMgNTg0IDIwNyA3MzMgMTA2IDktNiAxMS0xOSA1LTI4cy0xOS0xMS0yOC01Yy0xMzMgOTEtNDE5IDQ5LTY5MC0xMDdhMTIwMCAxMjAwIDAgMDEtMjg5LTIyOCAyMCAyMCAwIDAwLTI4LTEgMjAgMjAgMCAwMC0xIDI4eiIvPjxwYXRoIGQ9Ik0xMzA5IDkwMGMxMjgtMTUxIDE3Mi0zMDMgMTExLTQwOS00NS03OC0xNDEtMTE5LTI2Ny0xMjEtMTEgMC0yMCA5LTIwIDIwczkgMjAgMjAgMjBjMTE0IDEgMTk2IDM3IDIzMyAxMDEgNTEgODggMTEgMjI0LTEwNyAzNjNhMjAgMjAgMCAwMDIgMjggMjAgMjAgMCAwMDI4LTJ6TTk4MSAzODhhMTI2MyAxMjYzIDAgMDAtMzU2IDE0MWMtMjkzIDE2OS00ODMgNDE4LTQ1NyA1OThhMjEgMjEgMCAwMDIzIDE3IDIxIDIxIDAgMDAxNy0yM2MtMjQtMTYwIDE1Ny0zOTUgNDM3LTU1N2ExMjI4IDEyMjggMCAwMTM0NS0xMzcgMjAgMjAgMCAwMDE1LTI0Yy0zLTEwLTEzLTE3LTI0LTE1eiIvPjxwYXRoIGQ9Ik01MDggMTI1MmM2NyAxODYgMTc2IDMwMSAyOTkgMzAxIDkwIDAgMTcyLTYxIDIzNy0xNjkgNi05IDMtMjItNy0yNy05LTYtMjItMy0yNyA3LTU4IDk3LTEyOSAxNDktMjAzIDE0OS0xMDIgMC0xOTktMTAyLTI2MS0yNzVhMjAgMjAgMCAwMC0yNi0xMiAyMCAyMCAwIDAwLTEyIDI2em02MTAtMzZhMTI0MCAxMjQwIDAgMDA1My0zNzFjMC0zMzEtMTE2LTYxNy0yODEtNjkwLTEwLTQtMjIgMC0yNiAxMHMwIDIyIDEwIDI2YzE0NyA2NSAyNTcgMzM2IDI1NyA2NTRhMTIzMCAxMjMwIDAgMDEtNTEgMzU5IDIwIDIwIDAgMDAxMyAyNWMxMCAzIDIxLTMgMjUtMTN6bTM3Ni0yMGE5NiA5NiAwIDEwLTE5MiAwIDk2IDk2IDAgMDAxOTIgMHptLTQwIDBhNTYgNTYgMCAxMS0xMTIgMCA1NiA1NiAwIDAxMTEyIDB6bS0xMjQxIDk2YTk2IDk2IDAgMTAwLTE5MiA5NiA5NiAwIDAwMCAxOTJ6bTAtNDBhNTYgNTYgMCAxMTAtMTEyIDU2IDU2IDAgMDEwIDExMnoiLz48cGF0aCBkPSJNODA3IDI1MmE5NiA5NiAwIDEwMC0xOTIgOTYgOTYgMCAwMDAgMTkyem0wLTQwYTU2IDU2IDAgMTEwLTExMiA1NiA1NiAwIDAxMCAxMTJ6bTE0IDcwMWE3MCA3MCAwIDAxLTgyLTUzIDcwIDcwIDAgMDE1My04MiA3MCA3MCAwIDAxODIgNTMgNjkgNjkgMCAwMS01MyA4MnoiLz48L3N2Zz4=;" parent="1" vertex="1">
                    <mxGeometry x="293.68" y="313.68" width="92.64" height="92.64" as="geometry"/>
                </mxCell>
                <mxCell id="17" value="" style="shape=image;verticalLabelPosition=bottom;labelBackgroundColor=default;verticalAlign=top;aspect=fixed;imageAspect=0;image=data:image/svg+xml,PHN2ZyB4bWxucz0iaHR0cDovL3d3dy53My5vcmcvMjAwMC9zdmciIHZpZXdCb3g9Ii0xOC40NTggLTIyLjc1IDE5MS4xNTEgMTkxLjE1MSIgaGVpZ2h0PSI4MDBweCIgd2lkdGg9IjgwMHB4Ij48cGF0aCBmaWxsPSJub25lIiBkPSJNLTE4LjQ1OCA2LjU4aDE5MS4xNTF2MTMyLjQ5SC0xOC40NThWNi41OHoiLz48cGF0aCBmaWxsPSIjNWQ4N2ExIiBkPSJNNDAuMDU0IDExMy41ODNoLTUuMTc1Yy0uMTgzLTguNzM1LS42ODctMTYuOTQ3LTEuNTExLTI0LjY0MmgtLjA0NmwtNy44NzkgMjQuNjQyaC0zLjk0bC03LjgzMi0yNC42NDJoLS4wNDVjLS41ODEgNy4zODgtLjk0NyAxNS42MDItMS4wOTkgMjQuNjQySDcuODFjLjMwNC0xMC45OTMgMS4wNjgtMjEuMjk5IDIuMjg5LTMwLjkxOWg2LjQxNGw3LjQ2NSAyMi43MTloLjA0Nmw3LjUxMS0yMi43MTloNi4xMzdjMS4zNDQgMTEuMjY4IDIuMTM4IDIxLjU3NSAyLjM4MiAzMC45MTlNNjIuNDk3IDkwLjc3MWMtMi4xMDcgMTEuNDM0LTQuODg3IDE5Ljc0Mi04LjMzNyAyNC45MjgtMi42ODggMy45OTItNS42MzMgNS45OS04Ljg0IDUuOTktLjg1NSAwLTEuOTEtLjI1OC0zLjE2LS43N3YtMi43NTdjLjYxMS4wODggMS4zMjguMTM4IDIuMTUyLjEzOCAxLjQ5OCAwIDIuNzAyLS40MTIgMy42Mi0xLjIzOCAxLjA5OC0xLjAwNiAxLjY0Ny0yLjEzNyAxLjY0Ny0zLjM4OCAwLS44NTgtLjQyOC0yLjYxMi0xLjI4Mi01LjI2OEw0Mi42MTggOTAuNzdoNS4wODRsNC4wNzYgMTMuMTljLjkxNiAyLjk5NSAxLjI5OCA1LjA4NiAxLjE0NSA2LjI3NyAyLjIyOS01Ljk1MyAzLjc4Ni0xMi40NDQgNC42NzMtMTkuNDY4aDQuOTAxdi4wMDJ6Ii8+PHBhdGggZmlsbD0iI2Y4OTgxZCIgZD0iTTEzMS4zODIgMTEzLjU4M2gtMTQuN1Y4Mi42NjRoNC45NDV2MjcuMTEzaDkuNzU1djMuODA2ek0xMTIuODM0IDExNC4zM2wtNS42ODQtMi44MDVjLjUwNC0uNDE0Ljk4Ni0uODYyIDEuNDItMS4zODEgMi40MTYtMi44MzggMy42MjEtNy4wMzUgMy42MjEtMTIuNTk0IDAtMTAuMjI5LTQuMDE0LTE1LjM0Ni0xMi4wNDUtMTUuMzQ2LTMuOTM4IDAtNy4wMSAxLjI5OC05LjIwNyAzLjg5NS0yLjQxNCAyLjg0LTMuNjE5IDcuMDIyLTMuNjE5IDEyLjU1MSAwIDUuNDM1IDEuMDY4IDkuNDIyIDMuMjA1IDExLjk1MSAxLjk1NSAyLjI5MSA0LjkwMiAzLjQzOCA4Ljg0MyAzLjQzOCAxLjQ3IDAgMi44MTktLjE4IDQuMDQ4LS41NDNsNy40IDQuMzA4IDIuMDE4LTMuNDc0em0tMTguNDEzLTYuOTM0Yy0xLjI1Mi0yLjAxNC0xLjg3OC01LjI0OC0xLjg3OC05LjcwNyAwLTcuNzg1IDIuMzY1LTExLjY4MiA3LjEtMTEuNjgyIDIuNDc1IDAgNC4yODkuOTMyIDUuNDQ5IDIuNzkyIDEuMjUgMi4wMTcgMS44NzkgNS4yMjIgMS44NzkgOS42MTkgMCA3Ljg0OS0yLjM2NyAxMS43NzQtNy4wOTkgMTEuNzc0LTIuNDc2LjAwMS00LjI5LS45MjgtNS40NTEtMi43OTZNODUuMTY1IDEwNS4wMTNjMCAyLjYyMi0uOTYyIDQuNzczLTIuODg0IDYuNDU4LTEuOTI0IDEuNjc4LTQuNTA0IDIuNTE5LTcuNzM3IDIuNTE5LTMuMDI0IDAtNS45NTYtLjk2Ni04Ljc5NC0yLjg4OGwxLjMyOS0yLjY1NWMyLjQ0MiAxLjIyMyA0LjY1MyAxLjgzMSA2LjYzOCAxLjgzMSAxLjg2MyAwIDMuMzE5LS40MTMgNC4zNzUtMS4yMzIgMS4wNTUtLjgyMiAxLjY4NC0xLjk3NSAxLjY4NC0zLjQzMyAwLTEuODM3LTEuMjgxLTMuNDA3LTMuNjMxLTQuNzIyLTIuMTY3LTEuMTktNi41MDEtMy42NzgtNi41MDEtMy42NzgtMi4zNDktMS43MTItMy41MjUtMy41NS0zLjUyNS02LjU3OCAwLTIuNTA2Ljg3Ny00LjUyOSAyLjYzMi02LjA2OCAxLjc1Ny0xLjU0NSA0LjAyNC0yLjMxNSA2LjgwMy0yLjMxNSAyLjg3IDAgNS40NzkuNzY5IDcuODI5IDIuMjkxbC0xLjE5MiAyLjY1NmMtMi4wMS0uODU0LTMuOTk0LTEuMjgxLTUuOTUxLTEuMjgxLTEuNTg1IDAtMi44MDkuMzgxLTMuNjYgMS4xNDYtLjg1OC43NjItMS4zODcgMS43MzctMS4zODcgMi45MzMgMCAxLjgyOCAxLjMwOCAzLjQxOCAzLjcyMiA0Ljc1OSAyLjE5NiAxLjE5MiA2LjYzOCAzLjcyMyA2LjYzOCAzLjcyMyAyLjQwOSAxLjcwOSAzLjYxMiAzLjUzIDMuNjEyIDYuNTM0Ii8+PHBhdGggZmlsbD0iIzVkODdhMSIgZD0iTTEzNy41OSA3Mi4zMDhjLTIuOTktLjA3Ni01LjMwNS4yMjUtNy4yNDggMS4wNDctLjU2MS4yMjQtMS40NTMuMjI0LTEuNTMxLjkzMy4zMDMuMy4zMzguNzg0LjYwMSAxLjE5OC40NDguNzQ3IDEuMjI5IDEuNzUyIDEuOTQyIDIuMjc2Ljc4My42IDEuNTY5IDEuMTk0IDIuMzkzIDEuNzE3IDEuNDUzLjg5OSAzLjEgMS40MjIgNC41MTYgMi4zMTguODI1LjUyMSAxLjY0NSAxLjE5NSAyLjQ3MSAxLjc1Ni40MDYuMjk5LjY2Ni43ODQgMS4xOTMuOTcxdi0uMTE0Yy0uMjY0LS4zMzYtLjMzOS0uODIyLS41OTgtMS4xOTZsLTEuMTIyLTEuMDgyYy0xLjA4NC0xLjQ1Ni0yLjQzMS0yLjcyNy0zLjg4NC0zLjc3MS0xLjE5Ni0uODI0LTMuODEyLTEuOTQ0LTQuMjk3LTMuMzIybC0uMDc2LS4wNzZjLjgyMi0uMDc3IDEuNzk3LS4zNzUgMi41NzgtLjYwNCAxLjI3MS0uMzM1IDIuNDMtLjI1OSAzLjczNC0uNTk0LjYtLjE1IDEuMTk1LS4zMzggMS43OTctLjUyM3YtLjMzN2MtLjY3Ni0uNjczLTEuMTU4LTEuNTY3LTEuODY5LTIuMjAzLTEuOTAyLTEuNjQzLTMuOTk4LTMuMjUtNi4xNjQtNC41OTUtMS4xNi0uNzQ5LTIuNjUyLTEuMjMxLTMuODg3LTEuODY4LS40NDUtLjIyNS0xLjE5NS0uMzM2LTEuNDU3LS43MS0uNjctLjgyMi0xLjA0Ny0xLjkwNC0xLjUzMy0yLjg3Ny0xLjA4LTIuMDUzLTIuMTI5LTQuMzMxLTMuMDYxLTYuNTAyLS42NzQtMS40NTYtMS4wODQtMi45MS0xLjkwNi00LjI1Ny0zLjg1LTYuMzUtOC4wMzEtMTAuMTk2LTE0LjQ1Ny0xMy45NzEtMS4zODEtLjc4Ni0zLjAyNC0xLjEyMS00Ljc3OS0xLjUzM2wtMi44MDMtLjE0OGMtLjU5OC0uMjYyLTEuMTk3LS45NzMtMS43MTktMS4zMDktMi4xMzItMS4zNDQtNy42MjEtNC4yNTctOS4xODktLjQxMS0xLjAxIDIuNDMxIDEuNDk0IDQuODIxIDIuMzU0IDYuMDU0LjYzNS44NTYgMS40NTggMS44MyAxLjkwMiAyLjgwMi4yNjMuNjM1LjMzNyAxLjMwOS42IDEuOTguNTk4IDEuNjQ0IDEuMTU3IDMuNDczIDEuOTQzIDUuMDA3LjQxLjc4Mi44NTcgMS42MDQgMS4zODEgMi4zMTIuMy40MTQuODIyLjU5Ny45MzYgMS4yNzItLjUyMS43NDQtLjU2MiAxLjg2Ny0uODYxIDIuODAxLTEuMzQ0IDQuMjIxLS44MTkgOS40NSAxLjA4NiAxMi41NTIuNTk2LjkzNCAyLjAxOCAyLjk5IDMuOTIgMi4yMDIgMS42ODQtLjY3MiAxLjMxMS0yLjgwMSAxLjc5NS00LjY2OC4xMTEtLjQ1MS4wMzgtLjc0Ny4yNjItMS4wNDN2LjA3M2MuNTIxIDEuMDQ1IDEuMDQ3IDIuMDUyIDEuNTMgMy4xIDEuMTU5IDEuODI5IDMuMTc3IDMuNzM1IDQuODU4IDUuMDAyLjg5NS42NzYgMS42MDQgMS44MzIgMi43MjUgMi4yNDVWNzQuMWgtLjA3NGMtLjIyNy0uMzM1LS41NTktLjQ4NS0uODU3LS43NDUtLjY3NC0uNjczLTEuNDItMS40OTUtMS45NDMtMi4yNDEtMS41NjYtMi4wOTMtMi45NTItNC40MS00LjE4Mi02LjgwMS0uNjAyLTEuMTYtMS4xMjEtMi40MjgtMS42MDYtMy41ODYtLjIyNi0uNDQ3LS4yMjYtMS4xMjEtLjYwMS0xLjM0Ni0uNTYyLjgyMS0xLjM4MSAxLjUzMi0xLjc5MSAyLjUzOC0uNzExIDEuNjA5LS43ODUgMy41ODgtMS4wNDkgNS42NDZsLS4xNDcuMDcyYy0xLjE5LS4yOTktMS42MDQtMS41My0yLjA1Ni0yLjU3NS0xLjExOS0yLjY1NC0xLjMwNy02LjkxNC0uMzM2LTkuOTc2LjI2LS43ODMgMS4zODUtMy4yNDkuOTM2LTMuOTk1LS4yMjUtLjcxNS0uOTczLTEuMTIyLTEuMzgzLTEuNjg1LS40ODItLjcwOC0xLjAxLTEuNjA0LTEuMzQ2LTIuMzktLjg5Ni0yLjA5MS0xLjM0Ny00LjQwOC0yLjMxMi02LjQ5OC0uNDUxLS45NzQtMS4yMzQtMS45ODItMS44NjgtMi44NzktLjcxMi0xLjAwOC0xLjQ5NS0xLjcxOC0yLjA1OC0yLjkxMy0uMTg2LS40MTEtLjQ0Ny0xLjA4My0uMTQ4LTEuNTMuMDczLS4zLjIyNS0uNDEyLjUyMy0uNDg3LjQ4NC0uNDA5IDEuODY3LjExMSAyLjM1Mi4zMzYgMS4zODUuNTYgMi41NDMgMS4wODMgMy42OTkgMS44NjcuNTIzLjM3NSAxLjA4NCAxLjA4NSAxLjc1NSAxLjI3MmguNzg2YzEuMTkzLjI2IDIuNTM4LjA3MiAzLjY2MS40MSAxLjk3OS42MzYgMy43NzIgMS41NjkgNS4zOCAyLjU3NiA0Ljg5MyAzLjEwMyA4LjkyOCA3LjUxMiAxMS42NTIgMTIuNzc4LjQ0Ny44NTguNjM3IDEuNjQ0IDEuMDQ1IDIuNTM5Ljc4NyAxLjgzMiAxLjc2IDMuNyAyLjU0MSA1LjQ5My43ODUgMS43NTUgMS41MzMgMy41NDcgMi42NTQgNS4wMDUuNTU5Ljc4NCAyLjgwNSAxLjE5NSAzLjgxMiAxLjYwNi43NDUuMzM1IDEuOTA1LjYzMyAyLjU3NyAxLjA0NCAxLjI3MS43ODMgMi41MzcgMS42ODIgMy43MzIgMi41NDMuNTk1LjQ0OCAyLjQ2NSAxLjM4MiAyLjU3NiAyLjEzTTk5LjQ4NCAzOS44NDRhNS44MiA1LjgyIDAgMCAwLTEuNTI5LjE4OHYuMDc1aC4wNzJjLjMwMS41OTcuODI0IDEuMDExIDEuMTk3IDEuNTMyLjMwMS41OTkuNTYyIDEuMTkzLjg1NyAxLjc5MWwuMDcyLS4wNzRjLjUyNy0uMzczLjc4OS0uOTcxLjc4OS0xLjg2OC0uMjI3LS4yNjQtLjI2Mi0uNTIyLS40NTEtLjc4NC0uMjItLjM3NC0uNzA1LS41Ni0xLjAwNy0uODYiLz48cGF0aCBmaWxsPSIjZjg5ODFkIiBkPSJNMTQxLjE0OCAxMTMuNTc4aC43NzR2LTMuNzg4aC0xLjE2MWwtLjk0NyAyLjU4NS0xLjAyOS0yLjU4NWgtMS4xMTh2My43ODhoLjczMXYtMi44ODJoLjA0MWwxLjA3OCAyLjg4MmguNTU3bDEuMDc0LTIuODgydjIuODgyem0tNi4yMzUgMGguODE5di0zLjE0NmgxLjA3MnYtLjY0M2gtMy4wMDh2LjY0M2gxLjExNWwuMDAyIDMuMTQ2eiIvPjwvc3ZnPg==;" parent="1" vertex="1">
                    <mxGeometry x="370" y="132.51" width="134.99" height="134.99" as="geometry"/>
                </mxCell>
                <mxCell id="18" value="" style="shape=image;verticalLabelPosition=bottom;labelBackgroundColor=default;verticalAlign=top;aspect=fixed;imageAspect=0;image=data:image/svg+xml,PHN2ZyB4bWxucz0iaHR0cDovL3d3dy53My5vcmcvMjAwMC9zdmciIGZpbGw9Im5vbmUiIHZpZXdCb3g9IjAgMCAzMiAzMiIgaGVpZ2h0PSI4MDBweCIgd2lkdGg9IjgwMHB4Ij4mI3hhOzxwYXRoIGZpbGw9IiM4Q0M4NEIiIGQ9Ik0xNy4xNzI1IDIuMjk4NzJDMTYuNDYyNyAxLjg5OTUzIDE1LjUzNzMgMS45MDEzMiAxNC44MjY5IDIuMjk4NzJDMTEuMjY4OSA0LjI2MjI3IDcuNzEwODIgNi4yMjY0MSA0LjE1MjE2IDguMTg5MDZDMy40NTk2OSA4LjU1MzM1IDIuOTkyNjQgOS4yOTY5OCAzLjAwMDA5IDEwLjA2ODhWMjEuOTMyOEMyLjk5NTA5IDIyLjcxOTcgMy40ODYyMiAyMy40NzA1IDQuMTk2NTUgMjMuODI5OEM1LjIxODcxIDI0LjM3MzYgNi4yMTE4IDI0Ljk3MjYgNy4yNTI0NCAyNS40ODAyQzguNDU0NTEgMjYuMDcwOSA5Ljk1ODQzIDI2LjIwMTUgMTEuMTc1MiAyNS41ODU1QzEyLjE2MjkgMjUuMDc1IDEyLjYwMTYgMjMuOTM5NSAxMi42MDAzIDIyLjg5NkMxMi42MDgzIDE4Ljk4MDYgMTIuNjAxNiAxNS4wNjUxIDEyLjYwMzQgMTEuMTQ5NkMxMi42MjY5IDEwLjk3NTYgMTIuNDk2MiAxMC43ODk2IDEyLjMwNjQgMTAuNzkzOEMxMS44NTE3IDEwLjc4NjYgMTEuMzk2NCAxMC43ODk2IDEwLjk0MTcgMTAuNzkyNkMxMC43Njk5IDEwLjc3NjQgMTAuNjAyMiAxMC45MTkxIDEwLjYxNTIgMTEuMDkxOEMxMC42MDkxIDE0Ljk4MiAxMC42MTY0IDE4Ljg3MzQgMTAuNjExNSAyMi43NjQyQzEwLjYyMTQgMjMuMzAyNCAxMC4yNTc4IDIzLjgxOTYgOS43MzkxMyAyNC4wMDE0QzguNTQxMiAyNC40MjEzIDUuMTIxOTggMjIuMjAxMiA1LjEyMTk4IDIyLjIwMTJDNC45OTY1IDIyLjE0MzEgNC45MTY4MiAyMi4wMDcgNC45MjkxMiAyMS44NzE4QzQuOTI5MTIgMTcuOTU3NiA0LjkyOTczIDE0LjA0MzMgNC45MjkxMiAxMC4xMjk3QzQuOTExODcgOS45NzE5MSA1LjAwOTEyIDkuODI5OCA1LjE1NDAyIDkuNzY1MzhDOC43MDAzMyA3LjgxMzQgMTIuMjQ0OCA1Ljg1NjU0IDE1Ljc5MTEgMy45MDMzNkMxNS45MTQzIDMuODIxMTUgMTYuMDg2IDMuODIxNCAxNi4yMDg5IDMuOTAzOTZDMTkuNzU1MiA1Ljg1NjU0IDIzLjMwMDMgNy44MTE2MSAyNi44NDcyIDkuNzYzNjhDMjYuOTkyNiA5LjgyOCAyNy4wODU3IDkuOTcyNSAyNy4wNzA5IDEwLjEyOTdDMjcuMDcwMyAxNC4wNDMzIDI3LjA3MjEgMTcuOTU3NiAyNy4wNjk3IDIxLjg3MTNDMjcuMDgwMiAyMi4wMDk4IDI3LjAwODYgMjIuMTQ0IDI2Ljg3OTMgMjIuMjA0OEMyMy4zNjYxIDI0LjE0NjIgMTkuODEyOSAyNi4wMjUgMTYuMzMxNSAyOC4wMjI4QzE2LjE3OTYgMjguMTA5OSAxNi4wMDc1IDI4LjIwODYgMTUuODM3MyAyOC4xMTI2QzE0LjkyMTggMjcuNjA2MiAxNC4wMTc0IDI3LjA4MDEgMTMuMTA0OSAyNi41Njg4QzEzLjAwNTcgMjYuNTA2OSAxMi44Nzk0IDI2LjQ4MDMgMTIuNzc1OSAyNi41NDk2QzEyLjM2NjggMjYuNzY1MiAxMS45ODIgMjYuOTM5OCAxMS41MTIyIDI3LjEyNThDMTAuODUyNCAyNy4zODcgMTAuOTU3OCAyNy40OTM4IDExLjU1MjkgMjcuODQwNUMxMi42MiAyOC40NDQ0IDEzLjY4ODkgMjkuMDQ1OSAxNC43NTYgMjkuNjUwNEMxNS40NTg1IDMwLjA4ODggMTYuNDAyNCAzMC4xMiAxNy4xMjc1IDI5LjcxNDlDMjAuNjg2MSAyNy43NTM4IDI0LjI0MzYgMjUuNzkwNCAyNy44MDI5IDIzLjgyOTNDMjguNTExMyAyMy40NjggMjkuMDA0OSAyMi43MjAyIDI4Ljk5OTkgMjEuOTMyN1YxMC4wNjg4QzI5LjAwNjggOS4zMTI2NCAyOC41NTc2IDguNTgyMjcgMjcuODg2IDguMjEyNTlDMjQuMzE1NiA2LjIzOTQ3IDIwLjc0MzUgNC4yNzA2NCAxNy4xNzI1IDIuMjk4NzJaIi8+JiN4YTs8cGF0aCBmaWxsPSIjOENDODRCIiBkPSJNMjIuNTQxOSAxMS4yMDYyQzIxLjE0NTIgMTAuNDU5IDE5LjQ4MzYgMTAuNDE5MiAxNy45MzE1IDEwLjUxNjlDMTYuODEwMiAxMC42Mjc3IDE1LjYzMDkgMTAuOTM3MSAxNC44MTQgMTEuNzQwOUMxMy45NzYxIDEyLjU0ODkgMTMuNzkzNyAxMy44NTM3IDE0LjE5MTcgMTQuOTA4NUMxNC40NzY5IDE1LjY1MzkgMTUuMTk0OCAxNi4xMzg2IDE1LjkzNzIgMTYuMzk1QzE2Ljg5MzUgMTYuNzMyNiAxNy44OTc5IDE2LjgzNyAxOC45MDI2IDE2Ljk0MTRDMTkuODE5IDE3LjAzNjYgMjAuNzM1NyAxNy4xMzE5IDIxLjYxNjUgMTcuNDA0MkMyMS45NzYzIDE3LjUyMzQgMjIuMzk1MyAxNy43MDU4IDIyLjUwNTUgMTguMDk3M0MyMi42MDczIDE4LjU2MDkgMjIuNDk1NyAxOS4wOTk4IDIyLjExOTMgMTkuNDIxOUMyMC45MjM3IDIwLjM2ODIgMTcuNTk3OSAyMC4yMjMyIDE2LjQxNjYgMTkuNDc4NEMxNS45MzkgMTkuMTYxMSAxNS43MzMyIDE4LjU5OTQgMTUuNjQ5NSAxOC4wNjQxQzE1LjY0MDIgMTcuODk3MyAxNS41MDU5IDE3Ljc0NDMgMTUuMzI0OCAxNy43NTdDMTQuODcxMyAxNy43NTE2IDE0LjQxNzggMTcuNzUyOCAxMy45NjQzIDE3Ljc1NjRDMTMuODA2MSAxNy43NDMxIDEzLjY0MTYgMTcuODU1NyAxMy42MzI5IDE4LjAxNzJDMTMuNTM5NyAyMC40Njg5IDE1Ljc5MTQgMjEuNTM3NyAxNy45MDM5IDIxLjc3M0MxOS4xMTA4IDIxLjg4OCAyMC4zNDQyIDIxLjg4MTQgMjEuNTMyNyAyMS42MjI0QzIyLjQyNjEgMjEuNDE5IDIzLjMyMTkgMjEuMDQ0NCAyMy45MzY5IDIwLjM1NjNDMjQuNjk1MyAxOS41MiAyNC44NDQ0IDE4LjI3NDkgMjQuNTA0MyAxNy4yMzMyQzI0LjI0NDMgMTYuNDU1OSAyMy41MDEyIDE1Ljk1NzMgMjIuNzQxNiAxNS43MDA4QzIxLjcwODYgMTUuMzQ2NiAyMC40ODQ0IDE1LjE1NjIgMTkuNTQ4OCAxNS4wNjcxQzE4LjE4ODkgMTQuOTM3NiAxNi41NzI5IDE0Ljk5MDUgMTYuMTg4IDE0LjA5NjlDMTYuMDM0NSAxMy42MjkgMTYuMTY1MSAxMy4wNDggMTYuNTk1MSAxMi43NjAyQzE3LjczMjggMTEuOTg4NSAyMC4wNDgzIDEyLjA5MSAyMS4yMjY1IDEyLjY2NzVDMjEuNzY3NSAxMi45Mzg0IDIyLjA4MSAxMy40OTQ4IDIyLjIxMDQgMTQuMDU2NUMyMi4yMzQ0IDE0LjIyMTUgMjIuMzQ1NCAxNC4zOTM3IDIyLjUzNjQgMTQuMzg2NUMyMi45ODY4IDE0LjM5NTUgMjMuNDM3MiAxNC4zODg5IDIzLjg4NzUgMTQuMzg5NUMyNC4wNDIyIDE0LjQwMDMgMjQuMjExNiAxNC4zMTMgMjQuMjQxOCAxNC4xNTQ2QzI0LjIyMjcgMTIuOTgwNiAyMy42MjMyIDExLjc3ODggMjIuNTQxOSAxMS4yMDYyWiIvPiYjeGE7PC9zdmc+;" parent="1" vertex="1">
                    <mxGeometry x="190" y="145.01" width="110" height="110" as="geometry"/>
                </mxCell>
                <mxCell id="19" value="" style="shape=image;verticalLabelPosition=bottom;labelBackgroundColor=default;verticalAlign=top;aspect=fixed;imageAspect=0;image=data:image/svg+xml,PHN2ZyB4bWxucz0iaHR0cDovL3d3dy53My5vcmcvMjAwMC9zdmciIHZpZXdCb3g9IjAgMCAzMiAzMiIgaGVpZ2h0PSI4MDBweCIgd2lkdGg9IjgwMHB4Ij48dGl0bGU+ZmlsZV90eXBlX3RhaWx3aW5kPC90aXRsZT48cGF0aCBzdHlsZT0iZmlsbDojNDRhOGIzIiBkPSJNOSwxMy43cTEuNC01LjYsNy01LjZjNS42LDAsNi4zLDQuMiw5LjEsNC45cTIuOC43LDQuOS0yLjEtMS40LDUuNi03LDUuNmMtNS42LDAtNi4zLTQuMi05LjEtNC45UTExLjEsMTAuOSw5LDEzLjdaTTIsMjIuMXExLjQtNS42LDctNS42YzUuNiwwLDYuMyw0LjIsOS4xLDQuOXEyLjguNyw0LjktMi4xLTEuNCw1LjYtNyw1LjZjLTUuNiwwLTYuMy00LjItOS4xLTQuOVE0LjEsMTkuMywyLDIyLjFaIi8+PC9zdmc+;" parent="1" vertex="1">
                    <mxGeometry x="282.5" y="-17.5" width="115" height="115" as="geometry"/>
                </mxCell>
                <mxCell id="23" value="" style="rounded=0;whiteSpace=wrap;html=1;" parent="1" vertex="1">
                    <mxGeometry x="1120" y="195" width="190" height="160" as="geometry"/>
                </mxCell>
                <mxCell id="24" value="" style="rounded=0;whiteSpace=wrap;html=1;" parent="1" vertex="1">
                    <mxGeometry x="930" y="195" width="190" height="160" as="geometry"/>
                </mxCell>
                <mxCell id="25" value="" style="shape=image;verticalLabelPosition=bottom;labelBackgroundColor=default;verticalAlign=top;aspect=fixed;imageAspect=0;image=data:image/svg+xml,PHN2ZyB4bWxuczp4bGluaz0iaHR0cDovL3d3dy53My5vcmcvMTk5OS94bGluayIgeG1sbnM9Imh0dHA6Ly93d3cudzMub3JnLzIwMDAvc3ZnIiBwcmVzZXJ2ZUFzcGVjdFJhdGlvPSJ4TWlkWU1pZCIgdmVyc2lvbj0iMS4xIiB2aWV3Qm94PSIwIDAgMjU2IDI1Ni4wMDQyNzI0NjA5Mzc1IiBoZWlnaHQ9IjgwMC4wMTMzNTE0NDA0Mjk3IiB3aWR0aD0iODAwIj4mI3hhOyAgICA8Zz4mI3hhOyAgICAgICAgPHBvbHlnb24gcG9pbnRzPSIzOS44NjI2MTMzIDU0LjExNDU2IDAuMzEwNTk0MTMzIDkzLjcxNjQ4IDYxLjMwNjI0IDE1NC44OTQ5MzMgMCAyMTYuMzg1MDY3IDM5LjQyODI2NjcgMjU2LjAwNDI2NyAxMDAuODU4MDI3IDE5NC40OTcwNjcgMTYxLjk1NTIgMjU1LjU2NDggMjAxLjUwNzIgMjE1Ljk2MjY2NyIgZmlsbD0iIzUzQjlGRiI+JiN4YTsmI3hhOzwvcG9seWdvbj4mI3hhOyAgICAgICAgPHBvbHlnb24gcG9pbnRzPSIxNDAuNTE3MzMzIDE1NC44OTYgMTAwLjg1OTQxMyAxOTQuNDk3MDY3IDE2MS45NTYyNjcgMjU1LjU2NTg2NyAyMDEuNTA4MjY3IDIxNS45NjM3MzMiIGZpbGw9IiMxMTlFRkYiPiYjeGE7JiN4YTs8L3BvbHlnb24+JiN4YTsgICAgICAgIDxwb2x5Z29uIHBvaW50cz0iMTQwLjUxNzMzMyAxNTQuODk2IDEwMC44NTk0MTMgMTk0LjQ5NzA2NyAxMTYuMTI1ODY3IDIwOS42Nzg5MzMiIGZpbGw9IiMwMDAwMDAiIGZpbGwtb3BhY2l0eT0iMC4yIj4mI3hhOyYjeGE7PC9wb2x5Z29uPiYjeGE7ICAgICAgICA8cG9seWdvbiBwb2ludHM9IjE5NC41Njk2IDEwMC45ODUxNzMgMjU2IDM5LjQ3Nzk3MzMgMjE2LjQzMDkzMyAwIDE1NS4wMTg2NjcgNjEuMzgzNTczMyA5My45MTY1ODY3IDAuMzEwOTkzMDY3IDU0LjM2NDU4NjcgMzkuOTEyOTYgMjE2LjAwOTYgMjAxLjc2MTA2NyAyNTUuNTYxNiAxNjIuMTU4OTMzIiBmaWxsPSIjNTNCOUZGIj4mI3hhOyYjeGE7PC9wb2x5Z29uPiYjeGE7ICAgICAgICA8cG9seWdvbiBwb2ludHM9IjExNS4zNiAxMDAuOTg2NzczIDE1NS4wMTg2NjcgNjEuMzg1MDY2NyA5My45MTY1ODY3IDAuMzEyNTAwMjY3IDU0LjM2NDU4NjcgMzkuOTE0NDUzMyIgZmlsbD0iIzExOUVGRiI+JiN4YTsmI3hhOzwvcG9seWdvbj4mI3hhOyAgICAgICAgPHBvbHlnb24gcG9pbnRzPSIxMTUuMzU4OTMzIDEwMC45ODUzODcgMTU1LjAxNzYgNjEuMzgzNzg2NyAxMzkuNzQ3MiA0Ni4xOTc4NjY3IiBmaWxsPSIjMDAwMDAwIiBmaWxsLW9wYWNpdHk9IjAuMiI+JiN4YTsmI3hhOzwvcG9seWdvbj4mI3hhOyAgICA8L2c+JiN4YTs8L3N2Zz4=;" parent="1" vertex="1">
                    <mxGeometry x="975" y="225" width="100" height="100" as="geometry"/>
                </mxCell>
                <mxCell id="26" value="" style="shape=image;verticalLabelPosition=bottom;labelBackgroundColor=default;verticalAlign=top;aspect=fixed;imageAspect=0;image=data:image/svg+xml,PHN2ZyB4bWxucz0iaHR0cDovL3d3dy53My5vcmcvMjAwMC9zdmciIGZpbGw9Im5vbmUiIHZpZXdCb3g9IjAgMCAzMiAzMiIgaGVpZ2h0PSI4MDBweCIgd2lkdGg9IjgwMHB4Ij4mI3hhOzxwYXRoIGZpbGw9IiM4Q0M4NEIiIGQ9Ik0xNy4xNzI1IDIuMjk4NzJDMTYuNDYyNyAxLjg5OTUzIDE1LjUzNzMgMS45MDEzMiAxNC44MjY5IDIuMjk4NzJDMTEuMjY4OSA0LjI2MjI3IDcuNzEwODIgNi4yMjY0MSA0LjE1MjE2IDguMTg5MDZDMy40NTk2OSA4LjU1MzM1IDIuOTkyNjQgOS4yOTY5OCAzLjAwMDA5IDEwLjA2ODhWMjEuOTMyOEMyLjk5NTA5IDIyLjcxOTcgMy40ODYyMiAyMy40NzA1IDQuMTk2NTUgMjMuODI5OEM1LjIxODcxIDI0LjM3MzYgNi4yMTE4IDI0Ljk3MjYgNy4yNTI0NCAyNS40ODAyQzguNDU0NTEgMjYuMDcwOSA5Ljk1ODQzIDI2LjIwMTUgMTEuMTc1MiAyNS41ODU1QzEyLjE2MjkgMjUuMDc1IDEyLjYwMTYgMjMuOTM5NSAxMi42MDAzIDIyLjg5NkMxMi42MDgzIDE4Ljk4MDYgMTIuNjAxNiAxNS4wNjUxIDEyLjYwMzQgMTEuMTQ5NkMxMi42MjY5IDEwLjk3NTYgMTIuNDk2MiAxMC43ODk2IDEyLjMwNjQgMTAuNzkzOEMxMS44NTE3IDEwLjc4NjYgMTEuMzk2NCAxMC43ODk2IDEwLjk0MTcgMTAuNzkyNkMxMC43Njk5IDEwLjc3NjQgMTAuNjAyMiAxMC45MTkxIDEwLjYxNTIgMTEuMDkxOEMxMC42MDkxIDE0Ljk4MiAxMC42MTY0IDE4Ljg3MzQgMTAuNjExNSAyMi43NjQyQzEwLjYyMTQgMjMuMzAyNCAxMC4yNTc4IDIzLjgxOTYgOS43MzkxMyAyNC4wMDE0QzguNTQxMiAyNC40MjEzIDUuMTIxOTggMjIuMjAxMiA1LjEyMTk4IDIyLjIwMTJDNC45OTY1IDIyLjE0MzEgNC45MTY4MiAyMi4wMDcgNC45MjkxMiAyMS44NzE4QzQuOTI5MTIgMTcuOTU3NiA0LjkyOTczIDE0LjA0MzMgNC45MjkxMiAxMC4xMjk3QzQuOTExODcgOS45NzE5MSA1LjAwOTEyIDkuODI5OCA1LjE1NDAyIDkuNzY1MzhDOC43MDAzMyA3LjgxMzQgMTIuMjQ0OCA1Ljg1NjU0IDE1Ljc5MTEgMy45MDMzNkMxNS45MTQzIDMuODIxMTUgMTYuMDg2IDMuODIxNCAxNi4yMDg5IDMuOTAzOTZDMTkuNzU1MiA1Ljg1NjU0IDIzLjMwMDMgNy44MTE2MSAyNi44NDcyIDkuNzYzNjhDMjYuOTkyNiA5LjgyOCAyNy4wODU3IDkuOTcyNSAyNy4wNzA5IDEwLjEyOTdDMjcuMDcwMyAxNC4wNDMzIDI3LjA3MjEgMTcuOTU3NiAyNy4wNjk3IDIxLjg3MTNDMjcuMDgwMiAyMi4wMDk4IDI3LjAwODYgMjIuMTQ0IDI2Ljg3OTMgMjIuMjA0OEMyMy4zNjYxIDI0LjE0NjIgMTkuODEyOSAyNi4wMjUgMTYuMzMxNSAyOC4wMjI4QzE2LjE3OTYgMjguMTA5OSAxNi4wMDc1IDI4LjIwODYgMTUuODM3MyAyOC4xMTI2QzE0LjkyMTggMjcuNjA2MiAxNC4wMTc0IDI3LjA4MDEgMTMuMTA0OSAyNi41Njg4QzEzLjAwNTcgMjYuNTA2OSAxMi44Nzk0IDI2LjQ4MDMgMTIuNzc1OSAyNi41NDk2QzEyLjM2NjggMjYuNzY1MiAxMS45ODIgMjYuOTM5OCAxMS41MTIyIDI3LjEyNThDMTAuODUyNCAyNy4zODcgMTAuOTU3OCAyNy40OTM4IDExLjU1MjkgMjcuODQwNUMxMi42MiAyOC40NDQ0IDEzLjY4ODkgMjkuMDQ1OSAxNC43NTYgMjkuNjUwNEMxNS40NTg1IDMwLjA4ODggMTYuNDAyNCAzMC4xMiAxNy4xMjc1IDI5LjcxNDlDMjAuNjg2MSAyNy43NTM4IDI0LjI0MzYgMjUuNzkwNCAyNy44MDI5IDIzLjgyOTNDMjguNTExMyAyMy40NjggMjkuMDA0OSAyMi43MjAyIDI4Ljk5OTkgMjEuOTMyN1YxMC4wNjg4QzI5LjAwNjggOS4zMTI2NCAyOC41NTc2IDguNTgyMjcgMjcuODg2IDguMjEyNTlDMjQuMzE1NiA2LjIzOTQ3IDIwLjc0MzUgNC4yNzA2NCAxNy4xNzI1IDIuMjk4NzJaIi8+JiN4YTs8cGF0aCBmaWxsPSIjOENDODRCIiBkPSJNMjIuNTQxOSAxMS4yMDYyQzIxLjE0NTIgMTAuNDU5IDE5LjQ4MzYgMTAuNDE5MiAxNy45MzE1IDEwLjUxNjlDMTYuODEwMiAxMC42Mjc3IDE1LjYzMDkgMTAuOTM3MSAxNC44MTQgMTEuNzQwOUMxMy45NzYxIDEyLjU0ODkgMTMuNzkzNyAxMy44NTM3IDE0LjE5MTcgMTQuOTA4NUMxNC40NzY5IDE1LjY1MzkgMTUuMTk0OCAxNi4xMzg2IDE1LjkzNzIgMTYuMzk1QzE2Ljg5MzUgMTYuNzMyNiAxNy44OTc5IDE2LjgzNyAxOC45MDI2IDE2Ljk0MTRDMTkuODE5IDE3LjAzNjYgMjAuNzM1NyAxNy4xMzE5IDIxLjYxNjUgMTcuNDA0MkMyMS45NzYzIDE3LjUyMzQgMjIuMzk1MyAxNy43MDU4IDIyLjUwNTUgMTguMDk3M0MyMi42MDczIDE4LjU2MDkgMjIuNDk1NyAxOS4wOTk4IDIyLjExOTMgMTkuNDIxOUMyMC45MjM3IDIwLjM2ODIgMTcuNTk3OSAyMC4yMjMyIDE2LjQxNjYgMTkuNDc4NEMxNS45MzkgMTkuMTYxMSAxNS43MzMyIDE4LjU5OTQgMTUuNjQ5NSAxOC4wNjQxQzE1LjY0MDIgMTcuODk3MyAxNS41MDU5IDE3Ljc0NDMgMTUuMzI0OCAxNy43NTdDMTQuODcxMyAxNy43NTE2IDE0LjQxNzggMTcuNzUyOCAxMy45NjQzIDE3Ljc1NjRDMTMuODA2MSAxNy43NDMxIDEzLjY0MTYgMTcuODU1NyAxMy42MzI5IDE4LjAxNzJDMTMuNTM5NyAyMC40Njg5IDE1Ljc5MTQgMjEuNTM3NyAxNy45MDM5IDIxLjc3M0MxOS4xMTA4IDIxLjg4OCAyMC4zNDQyIDIxLjg4MTQgMjEuNTMyNyAyMS42MjI0QzIyLjQyNjEgMjEuNDE5IDIzLjMyMTkgMjEuMDQ0NCAyMy45MzY5IDIwLjM1NjNDMjQuNjk1MyAxOS41MiAyNC44NDQ0IDE4LjI3NDkgMjQuNTA0MyAxNy4yMzMyQzI0LjI0NDMgMTYuNDU1OSAyMy41MDEyIDE1Ljk1NzMgMjIuNzQxNiAxNS43MDA4QzIxLjcwODYgMTUuMzQ2NiAyMC40ODQ0IDE1LjE1NjIgMTkuNTQ4OCAxNS4wNjcxQzE4LjE4ODkgMTQuOTM3NiAxNi41NzI5IDE0Ljk5MDUgMTYuMTg4IDE0LjA5NjlDMTYuMDM0NSAxMy42MjkgMTYuMTY1MSAxMy4wNDggMTYuNTk1MSAxMi43NjAyQzE3LjczMjggMTEuOTg4NSAyMC4wNDgzIDEyLjA5MSAyMS4yMjY1IDEyLjY2NzVDMjEuNzY3NSAxMi45Mzg0IDIyLjA4MSAxMy40OTQ4IDIyLjIxMDQgMTQuMDU2NUMyMi4yMzQ0IDE0LjIyMTUgMjIuMzQ1NCAxNC4zOTM3IDIyLjUzNjQgMTQuMzg2NUMyMi45ODY4IDE0LjM5NTUgMjMuNDM3MiAxNC4zODg5IDIzLjg4NzUgMTQuMzg5NUMyNC4wNDIyIDE0LjQwMDMgMjQuMjExNiAxNC4zMTMgMjQuMjQxOCAxNC4xNTQ2QzI0LjIyMjcgMTIuOTgwNiAyMy42MjMyIDExLjc3ODggMjIuNTQxOSAxMS4yMDYyWiIvPiYjeGE7PC9zdmc+;" parent="1" vertex="1">
                    <mxGeometry x="1160" y="220" width="110" height="110" as="geometry"/>
                </mxCell>
                <mxCell id="27" value="&lt;span style=&quot;font-size: 15px;&quot;&gt;Node.js&lt;/span&gt;" style="text;html=1;strokeColor=none;fillColor=none;align=center;verticalAlign=middle;whiteSpace=wrap;rounded=0;" parent="1" vertex="1">
                    <mxGeometry x="1175" y="195" width="80" height="30" as="geometry"/>
                </mxCell>
                <mxCell id="28" value="&lt;span style=&quot;font-size: 15px;&quot;&gt;Capacitor&lt;/span&gt;" style="text;html=1;strokeColor=none;fillColor=none;align=center;verticalAlign=middle;whiteSpace=wrap;rounded=0;" parent="1" vertex="1">
                    <mxGeometry x="985" y="195" width="80" height="30" as="geometry"/>
                </mxCell>
                <mxCell id="29" value="" style="rounded=0;whiteSpace=wrap;html=1;" parent="1" vertex="1">
                    <mxGeometry x="930" y="355" width="380" height="160" as="geometry"/>
                </mxCell>
                <mxCell id="30" value="" style="shape=image;verticalLabelPosition=bottom;labelBackgroundColor=default;verticalAlign=top;aspect=fixed;imageAspect=0;image=data:image/svg+xml,PHN2ZyB4bWxuczp4bGluaz0iaHR0cDovL3d3dy53My5vcmcvMTk5OS94bGluayIgeG1sbnM9Imh0dHA6Ly93d3cudzMub3JnLzIwMDAvc3ZnIiB2ZXJzaW9uPSIxLjEiIHZpZXdCb3g9Ii0zIDAgNDggNDgiIGhlaWdodD0iODAwcHgiIHdpZHRoPSI4MDBweCI+JiN4YTsgICAgJiN4YTsgICAgPHRpdGxlPkFuZHJvaWQtY29sb3I8L3RpdGxlPiYjeGE7ICAgIDxkZXNjPkNyZWF0ZWQgd2l0aCBTa2V0Y2guPC9kZXNjPiYjeGE7ICAgIDxkZWZzPiYjeGE7JiN4YTs8L2RlZnM+JiN4YTsgICAgPGcgZmlsbC1ydWxlPSJldmVub2RkIiBmaWxsPSJub25lIiBzdHJva2Utd2lkdGg9IjEiIHN0cm9rZT0ibm9uZSIgaWQ9Ikljb25zIj4mI3hhOyAgICAgICAgPGcgZmlsbD0iIzk1Q0YwMCIgdHJhbnNmb3JtPSJ0cmFuc2xhdGUoLTMwNC4wMDAwMDAsIC01NjAuMDAwMDAwKSIgaWQ9IkNvbG9yLSI+JiN4YTsgICAgICAgICAgICA8cGF0aCBpZD0iQW5kcm9pZCIgZD0iTTMzMC43MjcwMDksNTY5LjYwMDkwNSBDMzI5LjkzNTM3Nyw1NjkuNjAwOTA1IDMyOS4yOTQ1MzIsNTY4Ljk3NzE5NSAzMjkuMjk0NTMyLDU2OC4yMDY3MjkgQzMyOS4yOTQ1MzIsNTY3LjQzNjI2NCAzMjkuOTM1Mzc3LDU2Ni44MTUzNzYgMzMwLjcyNzAwOSw1NjYuODE1Mzc2IEMzMzEuNTE4NjQxLDU2Ni44MTUzNzYgMzMyLjE1OTQ4Niw1NjcuNDM2MjY0IDMzMi4xNTk0ODYsNTY4LjIwNjcyOSBDMzMyLjE1OTQ4Niw1NjguOTc3MTk1IDMzMS41MTg2NDEsNTY5LjYwMDkwNSAzMzAuNzI3MDA5LDU2OS42MDA5MDUgTDMzMC43MjcwMDksNTY5LjYwMDkwNSBaIE0zMTkuMjcyOTkxLDU2OS42MDA5MDUgQzMxOC40ODEzNTksNTY5LjYwMDkwNSAzMTcuODQwNTE0LDU2OC45NzcxOTUgMzE3Ljg0MDUxNCw1NjguMjA2NzI5IEMzMTcuODQwNTE0LDU2Ny40MzYyNjQgMzE4LjQ4MTM1OSw1NjYuODE1Mzc2IDMxOS4yNzI5OTEsNTY2LjgxNTM3NiBDMzIwLjA2NDYyMyw1NjYuODE1Mzc2IDMyMC43MDU0NjgsNTY3LjQzNjI2NCAzMjAuNzA1NDY4LDU2OC4yMDY3MjkgQzMyMC43MDU0NjgsNTY4Ljk3NzE5NSAzMjAuMDY0NjIzLDU2OS42MDA5MDUgMzE5LjI3Mjk5MSw1NjkuNjAwOTA1IEwzMTkuMjcyOTkxLDU2OS42MDA5MDUgWiBNMzMxLjU3MzczNyw1NjQuMDE4NTU4IEwzMzIuMTA3MjkxLDU2My4yMzM5ODEgTDMzMi42NDA4NDUsNTYyLjQ2MDY5NCBMMzMzLjgyOTc0Myw1NjAuNzIyMjA4IEMzMzMuOTc3NjMsNTYwLjUwNzcxOSAzMzMuOTE2NzM2LDU2MC4yMTk4NTMgMzMzLjY5NjM1NSw1NjAuMDc4NzQyIEMzMzMuNDc4ODczLDU1OS45MzQ4MDkgMzMzLjE4MDE5OSw1NTkuOTk0MDc1IDMzMy4wMzgxMTEsNTYwLjIwODU2NCBMMzMxLjIyMjg2Nyw1NjIuODUyOTgyIEwzMzAuNjc3NzEzLDU2My42NDg4NDcgQzMyOC45NTIzNjEsNTYyLjk5NjkxNSAzMjcuMDI5ODI2LDU2Mi42MzI4NDkgMzI1LDU2Mi42MzI4NDkgQzMyMi45NzMwNzQsNTYyLjYzMjg0OSAzMjEuMDQ3NjM5LDU2Mi45OTY5MTUgMzE5LjMyMjI4Nyw1NjMuNjQ4ODQ3IEwzMTguNzgwMDMzLDU2Mi44NTI5ODIgTDMxOC4yNDM1NzksNTYyLjA3MTIyOCBMMzE2Ljk2NzY4OCw1NjAuMjA4NTY0IEMzMTYuODE5ODAxLDU1OS45OTQwNzUgMzE2LjUyNDAyNyw1NTkuOTM3NjMxIDMxNi4zMDM2NDUsNTYwLjA3ODc0MiBDMzE2LjA4NjE2NCw1NjAuMjE5ODUzIDMxNi4wMjUyNjksNTYwLjUwNzcxOSAzMTYuMTcwMjU3LDU2MC43MjIyMDggTDMxNy4zNTkxNTUsNTYyLjQ2MDY5NCBMMzE3Ljg5MjcwOSw1NjMuMjMzOTgxIEwzMTguNDI5MTYzLDU2NC4wMTg1NTggQzMxNC4zNzgyMSw1NjUuODU1ODIyIDMxMS42Mzc5NDUsNTY5LjMzNTYxNiAzMTEuNjM3OTQ1LDU3My4zMTc3NjYgTDMzOC4zNjIwNTUsNTczLjMxNzc2NiBDMzM4LjM2MjA1NSw1NjkuMzM1NjE2IDMzNS42MjE3OSw1NjUuODU1ODIyIDMzMS41NzM3MzcsNTY0LjAxODU1OCBaIE0zMTEuODQzODI4LDU3NS4xNzQ3ODUgTDMxMS42Mzc5NDUsNTc1LjE3NDc4NSBMMzExLjYzNzk0NSw1OTUuNjEzMjg2IEMzMTEuNjM3OTQ1LDU5Ny4yMzYwNjEgMzEyLjk5MjEyOSw1OTguNTU2ODU5IDMxNC42NjIzODYsNTk4LjU1Njg1OSBMMzE2Ljg0Mjk5OSw1OTguNTU2ODU5IEMzMTYuNzY3NjA2LDU5OC44MDIzOTIgMzE2LjcyNzAwOSw1OTkuMDU5MjE0IDMxNi43MjcwMDksNTk5LjMzMDE0NyBMMzE2LjcyNzAwOSw2MDUuMjE0NDcxIEMzMTYuNzI3MDA5LDYwNi43NTI1OCAzMTguMDExNTk5LDYwOCAzMTkuNTkxOTY0LDYwOCBDMzIxLjE3MjMyOCw2MDggMzIyLjQ1NjkxOCw2MDYuNzUyNTggMzIyLjQ1NjkxOCw2MDUuMjE0NDcxIEwzMjIuNDU2OTE4LDU5OS4zMzAxNDcgQzMyMi40NTY5MTgsNTk5LjA1OTIxNCAzMjIuNDEzNDIyLDU5OC44MDIzOTIgMzIyLjM0MDkyOCw1OTguNTU2ODU5IEwzMjcuNjU5MDcyLDU5OC41NTY4NTkgQzMyNy41ODY1NzgsNTk4LjgwMjM5MiAzMjcuNTQ1OTgyLDU5OS4wNTkyMTQgMzI3LjU0NTk4Miw1OTkuMzMwMTQ3IEwzMjcuNTQ1OTgyLDYwNS4yMTQ0NzEgQzMyNy41NDU5ODIsNjA2Ljc1MjU4IDMyOC44Mjc2NzIsNjA4IDMzMC40MDgwMzYsNjA4IEMzMzEuOTkxMzAxLDYwOCAzMzMuMjc1ODkxLDYwNi43NTI1OCAzMzMuMjc1ODkxLDYwNS4yMTQ0NzEgTDMzMy4yNzU4OTEsNTk5LjMzMDE0NyBDMzMzLjI3NTg5MSw1OTkuMDU5MjE0IDMzMy4yMzIzOTQsNTk4LjgwMjM5MiAzMzMuMTU3MDAxLDU5OC41NTY4NTkgTDMzNS4zNDA1MTQsNTk4LjU1Njg1OSBDMzM3LjAxMDc3MSw1OTguNTU2ODU5IDMzOC4zNjIwNTUsNTk3LjIzNjA2MSAzMzguMzYyMDU1LDU5NS42MTMyODYgTDMzOC4zNjIwNTUsNTc1LjE3NDc4NSBMMzExLjg0MzgyOCw1NzUuMTc0Nzg1IFogTTMwNi44NjQ5NTQsNTc1LjE3NDc4NSBDMzA1LjI4MTY5LDU3NS4xNzQ3ODUgMzA0LDU3Ni40MjIyMDUgMzA0LDU3Ny45NjAzMTQgTDMwNCw1ODkuODg0MTg0IEMzMDQsNTkxLjQyMjI5MyAzMDUuMjgxNjksNTkyLjY2OTcxMyAzMDYuODY0OTU0LDU5Mi42Njk3MTMgQzMwOC40NDUzMTksNTkyLjY2OTcxMyAzMDkuNzI3MDA5LDU5MS40MjIyOTMgMzA5LjcyNzAwOSw1ODkuODg0MTg0IEwzMDkuNzI3MDA5LDU3Ny45NjAzMTQgQzMwOS43MjcwMDksNTc2LjQyMjIwNSAzMDguNDQ1MzE5LDU3NS4xNzQ3ODUgMzA2Ljg2NDk1NCw1NzUuMTc0Nzg1IFogTTM0My4xMzc5NDUsNTc1LjE3NDc4NSBDMzQxLjU1NDY4MSw1NzUuMTc0Nzg1IDM0MC4yNzI5OTEsNTc2LjQyMjIwNSAzNDAuMjcyOTkxLDU3Ny45NjAzMTQgTDM0MC4yNzI5OTEsNTg5Ljg4NDE4NCBDMzQwLjI3Mjk5MSw1OTEuNDIyMjkzIDM0MS41NTQ2ODEsNTkyLjY2OTcxMyAzNDMuMTM3OTQ1LDU5Mi42Njk3MTMgQzM0NC43MTgzMSw1OTIuNjY5NzEzIDM0Niw1OTEuNDIyMjkzIDM0Niw1ODkuODg0MTg0IEwzNDYsNTc3Ljk2MDMxNCBDMzQ2LDU3Ni40MjIyMDUgMzQ0LjcxODMxLDU3NS4xNzQ3ODUgMzQzLjEzNzk0NSw1NzUuMTc0Nzg1IFoiPiYjeGE7JiN4YTs8L3BhdGg+JiN4YTsgICAgICAgIDwvZz4mI3hhOyAgICA8L2c+JiN4YTs8L3N2Zz4=;" parent="1" vertex="1">
                    <mxGeometry x="1067.5" y="382.5" width="105" height="105" as="geometry"/>
                </mxCell>
                <mxCell id="31" value="&lt;font style=&quot;font-size: 15px;&quot;&gt;Android&lt;/font&gt;" style="text;html=1;strokeColor=none;fillColor=none;align=center;verticalAlign=middle;whiteSpace=wrap;rounded=0;" parent="1" vertex="1">
                    <mxGeometry x="1090" y="355" width="60" height="30" as="geometry"/>
                </mxCell>
                <mxCell id="32" value="" style="rounded=0;whiteSpace=wrap;html=1;" parent="1" vertex="1">
                    <mxGeometry x="930" y="35" width="380" height="160" as="geometry"/>
                </mxCell>
                <mxCell id="33" value="" style="shape=image;verticalLabelPosition=bottom;labelBackgroundColor=default;verticalAlign=top;aspect=fixed;imageAspect=0;image=data:image/svg+xml,PHN2ZyB4bWxuczp4bGluaz0iaHR0cDovL3d3dy53My5vcmcvMTk5OS94bGluayIgeG1sbnM9Imh0dHA6Ly93d3cudzMub3JnLzIwMDAvc3ZnIiBwcmVzZXJ2ZUFzcGVjdFJhdGlvPSJ4TWlkWU1pZCIgdmVyc2lvbj0iMS4xIiB2aWV3Qm94PSIwIDAuMDAwMDIyODg4MTgzNTkzNzUgMjU2IDI1NS42OTkwMzU2NDQ1MzEyNSIgaGVpZ2h0PSI3OTkuMDU5NDg2Mzg5MTYwMiIgd2lkdGg9IjgwMCI+JiN4YTsgICAgPGc+JiN4YTsgICAgICAgIDxwYXRoIGZpbGw9IiMzODgwRkYiIGQ9Ik0xMjguMTUxNjU5LDAuMDAxMTg1NTk3OTggQzE0OC45Mjg5MSwwLjAwMTE4NTU5Nzk4IDE2OC40OTI4OTEsNC44NTU0NjExNCAxODYuODQzNjAyLDE0LjI1ODMwNDcgTDE4Ni44NDM2MDIsMTQuMjU4MzA0NyBMMTg5LjI3MDE0MiwxNS40NzE1NzQ5IEwxODcuMTQ2OTE5LDE3LjEzOTgyMTMgQzE4MS45OTA1MjEsMjEuMjM0NjA4MSAxNzcuODk1NzM1LDI2LjU0MjY2NDkgMTc1LjMxNzUzNiwzMi42MDkwMTU2IEwxNzUuMzE3NTM2LDMyLjYwOTAxNTYgTDE3NC41NTkyNDIsMzQuMjc3MjYyMSBMMTczLjA0MjY1NCwzMy41MTg5NjgyIEMxNTguOTM4Mzg5LDI2Ljg0NTk4MjUgMTQzLjkyNDE3MSwyMy4zNTc4MzA4IDEyOC4zMDMzMTgsMjMuMzU3ODMwOCBDNzAuNTIxMzI3LDIzLjM1NzgzMDggMjMuNjU4NzY3OCw3MC4zNzIwNDg4IDIzLjY1ODc2NzgsMTI4LjAwMjM4MSBDMjMuNjU4NzY3OCwxODUuNjMyNzEyIDcwLjM2OTY2ODIsMjMyLjY0NjkzIDEyOC4xNTE2NTksMjMyLjY0NjkzIEMxODUuOTMzNjQ5LDIzMi42NDY5MyAyMzIuNzk2MjA5LDE4NS42MzI3MTIgMjMyLjc5NjIwOSwxMjguMDAyMzgxIEMyMzIuNzk2MjA5LDExNC4yMDE0MzMgMjMwLjIxODAwOSwxMDAuNzAzODAyIDIyNC43NTgyOTQsODcuOTY0NDY1OSBMMjI0Ljc1ODI5NCw4Ny45NjQ0NjU5IEwyMjQsODYuMjk2MjE5NCBMMjI1LjY2ODI0Niw4NS41Mzc5MjU2IEMyMzEuODg2MjU2LDgzLjI2MzA0NDEgMjM3LjM0NTk3Miw3OS40NzE1NzQ5IDI0MS43NDQwNzYsNzQuNjE4NDk0MyBMMjQxLjc0NDA3Niw3NC42MTg0OTQzIEwyNDMuNDEyMzIyLDcyLjQ5NTI3MTYgTDI0NC40NzM5MzQsNzQuOTIxODExOSBDMjUyLjIwODUzMSw5MS43NTU5MzUxIDI1NiwxMDkuNjUxNjcgMjU2LDEyNy42OTkwNjMgQzI1NiwxOTguMjIwMzkgMTk4LjUyMTMyNywyNTUuNjk5MDYzIDEyOCwyNTUuNjk5MDYzIEM1Ny40Nzg2NzMsMjU1LjY5OTA2MyAwLDE5OC4yMjAzOSAwLDEyNy42OTkwNjMgQzAsNTcuMTc3NzM2IDU3LjQ3ODY3MywtMC4zMDA5MzY5NjQgMTI4LjE1MTY1OSwwLjAwMTE4NTU5Nzk4IFogTTEyOC4xNTE2NTksNjkuNzY1NDEzNyBDMTYwLjE1MTY1OSw2OS43NjU0MTM3IDE4Ni4zODg2MjYsOTUuODUwNzIxOCAxODYuNTQwMjg0LDEyOC4xNTQwMzkgQzE4Ni41NDAyODQsMTYwLjQ1NzM1NyAxNjAuNDU0OTc2LDE4Ni41NDI2NjUgMTI4LjE1MTY1OSwxODYuNTQyNjY1IEM5NS44NDgzNDEyLDE4Ni41NDI2NjUgNjkuNzYzMDMzMiwxNjAuNDU3MzU3IDY5Ljc2MzAzMzIsMTI4LjE1NDAzOSBDNjkuNzYzMDMzMiw5NS44NTA3MjE4IDk2LDY5Ljc2NTQxMzcgMTI4LjE1MTY1OSw2OS43NjU0MTM3IFogTTIxMS43MTU2NCwyMS41Mzc5MjU2IEMyMjYuNDU3MTkzLDIxLjUzNzkyNTYgMjM4LjQwNzU4MywzMy40ODgzMTU2IDIzOC40MDc1ODMsNDguMjI5ODY4NyBDMjM4LjQwNzU4Myw2Mi45NzE0MjE5IDIyNi40NTcxOTMsNzQuOTIxODExOSAyMTEuNzE1NjQsNzQuOTIxODExOSBDMTk2Ljk3NDA4Nyw3NC45MjE4MTE5IDE4NS4wMjM2OTcsNjIuOTcxNDIxOSAxODUuMDIzNjk3LDQ4LjIyOTg2ODcgQzE4NS4wMjM2OTcsMzMuNDg4MzE1NiAxOTYuOTc0MDg3LDIxLjUzNzkyNTYgMjExLjcxNTY0LDIxLjUzNzkyNTYgWiI+JiN4YTsmI3hhOzwvcGF0aD4mI3hhOyAgICA8L2c+JiN4YTs8L3N2Zz4=;" parent="1" vertex="1">
                    <mxGeometry x="1074.94" y="70" width="90.12" height="90" as="geometry"/>
                </mxCell>
                <mxCell id="34" value="&lt;span style=&quot;font-size: 15px;&quot;&gt;Ionic&lt;/span&gt;" style="text;html=1;strokeColor=none;fillColor=none;align=center;verticalAlign=middle;whiteSpace=wrap;rounded=0;" parent="1" vertex="1">
                    <mxGeometry x="1080" y="35" width="80" height="30" as="geometry"/>
                </mxCell>
                <mxCell id="37" value="" style="shape=flexArrow;endArrow=classic;startArrow=classic;html=1;fontSize=20;entryX=0;entryY=0.529;entryDx=0;entryDy=0;entryPerimeter=0;width=38.2608695652174;endSize=12.730434782608697;endWidth=44.87712665406427;startWidth=34.442344045368614;startSize=12.730434782608697;fillColor=default;" parent="1" target="35" edge="1">
                    <mxGeometry width="100" height="100" relative="1" as="geometry">
                        <mxPoint x="570" y="282.5" as="sourcePoint"/>
                        <mxPoint x="710" y="282.5" as="targetPoint"/>
                    </mxGeometry>
                </mxCell>
                <mxCell id="40" value="REST API" style="edgeLabel;html=1;align=center;verticalAlign=middle;resizable=0;points=[];fontSize=20;" parent="37" vertex="1" connectable="0">
                    <mxGeometry x="-0.0725" relative="1" as="geometry">
                        <mxPoint x="12" as="offset"/>
                    </mxGeometry>
                </mxCell>
            </root>
        </mxGraphModel>
    </diagram>
</mxfile>